<?xml version="1.0" standalone="no"?>
<!DOCTYPE svg PUBLIC "-//W3C//DTD SVG 20010904//EN"
 "http://www.w3.org/TR/2001/REC-SVG-20010904/DTD/svg10.dtd">
<svg version="1.0" xmlns="http://www.w3.org/2000/svg"
 width="86.000000pt" height="86.000000pt" viewBox="0 0 86.000000 86.000000"
 preserveAspectRatio="xMidYMid meet">
<metadata>
Created by potrace 1.14, written by Peter Selinger 2001-2017
</metadata>
<g transform="translate(0.000000,86.000000) scale(0.100000,-0.100000)"
fill="#000000" stroke="none">
<path d="M245 747 l-180 -103 0 -214 0 -214 180 -103 c99 -57 185 -103 190
-103 6 0 91 46 190 103 l180 103 0 214 0 214 -180 103 c-99 57 -184 103 -190
103 -5 0 -91 -46 -190 -103z m435 -191 c0 -61 -1 -64 -27 -71 -14 -3 -72 -50
-128 -105 -56 -54 -119 -106 -140 -115 -22 -9 -75 -19 -117 -22 l-78 -6 0 65
0 65 56 7 c79 9 126 37 226 133 88 85 131 112 181 113 27 0 27 -1 27 -64z m0
-251 l0 -65 -70 0 -70 0 0 65 0 65 70 0 70 0 0 -65z"/>
</g>
</svg>
